<?xml version="1.0" encoding="utf-8"?>
<!-- Generator: Adobe Illustrator 16.0.0, SVG Export Plug-In . SVG Version: 6.00 Build 0)  -->
<!DOCTYPE svg PUBLIC "-//W3C//DTD SVG 1.1 Basic//EN" "http://www.w3.org/Graphics/SVG/1.1/DTD/svg11-basic.dtd" [
	<!ENTITY ns_extend "http://ns.adobe.com/Extensibility/1.0/">
	<!ENTITY ns_ai "http://ns.adobe.com/AdobeIllustrator/10.0/">
	<!ENTITY ns_graphs "http://ns.adobe.com/Graphs/1.0/">
	<!ENTITY ns_vars "http://ns.adobe.com/Variables/1.0/">
	<!ENTITY ns_imrep "http://ns.adobe.com/ImageReplacement/1.0/">
	<!ENTITY ns_sfw "http://ns.adobe.com/SaveForWeb/1.0/">
	<!ENTITY ns_custom "http://ns.adobe.com/GenericCustomNamespace/1.0/">
	<!ENTITY ns_adobe_xpath "http://ns.adobe.com/XPath/1.0/">
]>
<svg version="1.1" baseProfile="basic" xmlns:x="&ns_extend;" xmlns:i="&ns_ai;" xmlns:graph="&ns_graphs;"
	 xmlns="http://www.w3.org/2000/svg" xmlns:xlink="http://www.w3.org/1999/xlink" x="0px" y="0px" width="203.65px"
	 height="203.65px" viewBox="0 0 203.65 203.65" xml:space="preserve">
<metadata>
	<sfw  xmlns="&ns_sfw;">
		<slices></slices>
		<sliceSourceBounds  bottomLeftOrigin="true" y="-103.89" height="203.79" width="203.79" x="42.11"></sliceSourceBounds>
	</sfw>
</metadata>
<g id="Diaginals_Circle" display="none">
	<path id="DownLeft_1_" display="inline" fill="none" stroke="#000000" stroke-width="0.1" stroke-miterlimit="10" d="M35.3,129.38
		c7.3,17.6,21.37,31.67,38.97,38.97l27.56-66.53L35.3,129.38z"/>
	<path id="RightUp_1_" display="inline" fill="none" stroke="#000000" stroke-width="0.1" stroke-miterlimit="10" d="M152.75,50.93
		c-0.01-0.01-0.02-0.02-0.03-0.03L152.75,50.93c6.63,6.63,11.96,14.55,15.6,23.34c0,0-66.53,27.56-66.53,27.56l27.56-66.53
		c8.79,3.65,16.71,8.98,23.34,15.6"/>
	<path id="DownRight_1_" display="inline" fill="none" stroke="#000000" stroke-width="0.1" stroke-miterlimit="10" d="
		M101.82,101.83l27.56,66.53c8.79-3.64,16.7-8.97,23.33-15.59l0.05-0.05c-0.02,0.02-0.03,0.03-0.05,0.05l0.05-0.05
		c6.62-6.63,11.95-14.54,15.59-23.33L101.82,101.83z"/>
	<path id="LeftUp_1_" display="inline" fill="none" stroke="#000000" stroke-width="0.1" stroke-miterlimit="10" d="M101.82,101.82
		L35.3,74.27c7.3-17.6,21.37-31.67,38.97-38.97L101.82,101.82L101.82,101.82z"/>
</g>
<g id="UpRightDownLeft_Circle">
	<path id="Right" fill="none" d="M101.82,101.82L101.82,101.82c0,0,66.53-27.56,66.53-27.56c3.52,8.49,5.47,17.79,5.47,27.56
		s-1.95,19.07-5.47,27.56C168.35,129.38,101.82,101.83,101.82,101.82C101.82,101.82,101.82,101.82,101.82,101.82L101.82,101.82
		L101.82,101.82L101.82,101.82C101.82,101.82,101.82,101.82,101.82,101.82L101.82,101.82L101.82,101.82L101.82,101.82z"/>
	<path id="Left" fill="none" d="M101.82,101.82L101.82,101.82C101.82,101.82,101.82,101.82,101.82,101.82
		C101.82,101.83,101.82,101.82,101.82,101.82C101.82,101.82,101.82,101.82,101.82,101.82C101.82,101.82,101.82,101.82,101.82,101.82
		C101.82,101.83,101.82,101.82,101.82,101.82L101.82,101.82L35.3,74.27c-3.52,8.49-5.47,17.79-5.47,27.56s1.95,19.07,5.47,27.56
		C35.3,129.38,101.82,101.82,101.82,101.82L101.82,101.82"/>
	<path id="Down" fill="none" d="M101.82,173.82c-9.76,0-19.07-1.95-27.56-5.47l27.56-66.53l0,0l27.56,66.53
		C120.89,171.87,111.59,173.82,101.82,173.82z"/>
	<path id="Up_1_" display="none" fill="none" d="M101.82,101.82L74.27,35.3c8.49-3.52,17.79-5.47,27.56-5.47s19.07,1.95,27.55,5.47
		L101.82,101.82L101.82,101.82z"/>
</g>
<g id="Diagogonals_Pointers" display="none">
	<path id="LeftUp" fill="none" stroke="#000000" stroke-width="0.1" stroke-miterlimit="10" d="M72,29.82L72,29.82L72,29.82
		L72,29.82l2.27,5.47c-8.49,3.51-16.45,8.71-23.35,15.61c-6.9,6.9-12.1,14.86-15.61,23.36c0,0-5.47-2.27-5.47-2.27c0,0,0,0,0,0
		c0,0,0,0,0,0l0,0l0-42.18H72z"/>
	<path id="RightUp" fill="none" stroke="#000000" stroke-width="0.1" stroke-miterlimit="10" d="M152.74,50.91
		c6.9,6.9,12.1,14.86,15.62,23.36l5.47-2.27l0,0c0,0,0,0,0,0l0,0l-5.47,2.27l5.47-2.27c0,0,0-42.17,0-42.17l-42.17,0v0c0,0,0,0,0,0
		c0,0,0,0,0,0l-2.27,5.47C137.87,38.81,145.83,44.01,152.74,50.91z"/>
	<path id="DownLeft" fill="none" stroke="#000000" stroke-width="0.1" stroke-miterlimit="10" d="M72,173.82H29.82v-42.18
		 M72,173.82l2.27-5.47 M29.82,131.65L29.82,131.65C29.83,131.65,29.82,131.65,29.82,131.65C29.83,131.65,29.82,131.65,29.82,131.65
		c0,0,5.48-2.27,5.48-2.27c3.51,8.49,8.71,16.45,15.61,23.36s14.86,12.1,23.35,15.61L72,173.82l0,0"/>
	<path id="DownRight" fill="none" stroke="#000000" stroke-width="0.1" stroke-miterlimit="10" d="M131.65,173.82h42.18l0-42.18l0,0
		l0,0l0,0l-5.47-2.27l5.47,2.27l-5.47-2.27c-3.51,8.49-8.71,16.45-15.61,23.35c-6.9,6.9-14.86,12.1-23.36,15.62L131.65,173.82
		L131.65,173.82L131.65,173.82L131.65,173.82z"/>
</g>
<g id="UpRightDownLeft_Pointers" display="none">
	<path id="Up" display="inline" fill="none" stroke="#000000" stroke-width="0.1" stroke-miterlimit="10" d="M131.65,29.82
		L131.65,29.82L131.65,29.82L131.65,29.82l-2.27,5.47c-8.49-3.52-17.79-5.47-27.55-5.47s-19.07,1.95-27.56,5.47
		c0,0-2.27-5.47-2.27-5.47c0,0,0,0,0,0c0,0,0,0,0,0l0,0L101.82,0L131.65,29.82z"/>
	<path id="Right_1_" display="inline" fill="none" stroke="#000000" stroke-width="0.1" stroke-miterlimit="10" d="M173.82,101.82
		c0,9.76-1.95,19.07-5.47,27.56l5.47,2.27l0,0c0,0,0,0,0,0v0l-5.47-2.27l5.47,2.27l29.82-29.82L173.82,72v0l0,0c0,0,0,0,0,0
		l-5.47,2.27C171.87,82.76,173.82,92.06,173.82,101.82z"/>
	<path id="Left_1_" display="inline" fill="none" stroke="#000000" stroke-width="0.1" stroke-miterlimit="10" d="M29.82,131.65
		L0,101.82L29.82,72 M29.82,131.65l5.47-2.27 M29.82,72L29.82,72C29.82,72,29.82,72,29.82,72C29.82,72,29.82,72,29.82,72
		c0,0,5.47,2.27,5.47,2.27c-3.52,8.49-5.47,17.79-5.47,27.56s1.95,19.07,5.47,27.56l-5.47,2.27c0,0,0,0,0,0"/>
	<path id="Down_1_" display="inline" fill="none" stroke="#000000" stroke-width="0.1" stroke-miterlimit="10" d="M72,173.82
		l29.82,29.82l29.82-29.82l0,0h0l0,0l-2.27-5.47l2.27,5.47l-2.27-5.47c-8.49,3.52-17.79,5.47-27.56,5.47
		c-9.76,0-19.07-1.95-27.56-5.47L72,173.82C72,173.82,72,173.82,72,173.82L72,173.82C72,173.82,72,173.82,72,173.82z"/>
</g>
</svg>
